<mxfile host="app.diagrams.net" modified="2022-01-24T12:58:26.047Z" agent="5.0 (Windows NT 10.0; Win64; x64) AppleWebKit/537.36 (KHTML, like Gecko) Chrome/97.0.4692.99 Safari/537.36" etag="ZkEtGpH2JBcr3ocZB5ab" version="16.4.5" type="gitlab">
  <diagram id="KcI0k81A7KpCiZLUycv3" name="Page-1">
    <mxGraphModel dx="782" dy="468" grid="1" gridSize="10" guides="1" tooltips="1" connect="1" arrows="1" fold="1" page="1" pageScale="1" pageWidth="850" pageHeight="1100" math="0" shadow="0">
      <root>
        <mxCell id="0" />
        <mxCell id="1" parent="0" />
        <mxCell id="RdzUvG4YaiTT2t2f8Zw8-2" value="" style="rounded=0;whiteSpace=wrap;html=1;" vertex="1" parent="1">
          <mxGeometry x="40" y="560" width="720" height="480" as="geometry" />
        </mxCell>
        <mxCell id="RdzUvG4YaiTT2t2f8Zw8-3" value="" style="rounded=0;whiteSpace=wrap;html=1;" vertex="1" parent="1">
          <mxGeometry x="40" y="560" width="720" height="70" as="geometry" />
        </mxCell>
        <mxCell id="RdzUvG4YaiTT2t2f8Zw8-4" value="" style="rounded=0;whiteSpace=wrap;html=1;" vertex="1" parent="1">
          <mxGeometry x="40" y="980" width="720" height="60" as="geometry" />
        </mxCell>
        <mxCell id="RdzUvG4YaiTT2t2f8Zw8-5" value="&lt;span style=&quot;color: rgb(0, 0, 0); font-family: helvetica; font-size: 16px; font-style: normal; font-weight: 400; letter-spacing: normal; text-align: center; text-indent: 0px; text-transform: none; word-spacing: 0px; background-color: rgb(248, 249, 250); display: inline; float: none;&quot;&gt;Copyright Â© 2021. Joshua &amp;amp; Ethan @ DAAA/2B/03&lt;/span&gt;" style="text;whiteSpace=wrap;html=1;" vertex="1" parent="1">
          <mxGeometry x="205" y="995" width="390" height="30" as="geometry" />
        </mxCell>
        <mxCell id="RdzUvG4YaiTT2t2f8Zw8-10" value="Login" style="text;strokeColor=none;fillColor=none;align=left;verticalAlign=middle;spacingLeft=4;spacingRight=4;overflow=hidden;points=[[0,0.5],[1,0.5]];portConstraint=eastwest;rotatable=0;" vertex="1" parent="1">
          <mxGeometry x="670" y="585" width="80" height="30" as="geometry" />
        </mxCell>
        <mxCell id="RdzUvG4YaiTT2t2f8Zw8-11" value="About" style="text;strokeColor=none;fillColor=none;align=left;verticalAlign=middle;spacingLeft=4;spacingRight=4;overflow=hidden;points=[[0,0.5],[1,0.5]];portConstraint=eastwest;rotatable=0;" vertex="1" parent="1">
          <mxGeometry x="590" y="585" width="80" height="30" as="geometry" />
        </mxCell>
        <mxCell id="RdzUvG4YaiTT2t2f8Zw8-12" value="Ball Recognisers" style="text;strokeColor=none;fillColor=none;align=left;verticalAlign=middle;spacingLeft=4;spacingRight=4;overflow=hidden;points=[[0,0.5],[1,0.5]];portConstraint=eastwest;rotatable=0;" vertex="1" parent="1">
          <mxGeometry x="50" y="580" width="150" height="30" as="geometry" />
        </mxCell>
        <mxCell id="RdzUvG4YaiTT2t2f8Zw8-13" value="" style="rounded=0;whiteSpace=wrap;html=1;" vertex="1" parent="1">
          <mxGeometry x="220" y="695" width="360" height="210" as="geometry" />
        </mxCell>
        <mxCell id="RdzUvG4YaiTT2t2f8Zw8-16" value="" style="rounded=0;whiteSpace=wrap;html=1;" vertex="1" parent="1">
          <mxGeometry x="270" y="740" width="220" height="30" as="geometry" />
        </mxCell>
        <mxCell id="RdzUvG4YaiTT2t2f8Zw8-17" value="" style="rounded=0;whiteSpace=wrap;html=1;align=left;" vertex="1" parent="1">
          <mxGeometry x="270" y="810" width="220" height="30" as="geometry" />
        </mxCell>
        <mxCell id="RdzUvG4YaiTT2t2f8Zw8-18" value="Username" style="text;html=1;strokeColor=none;fillColor=none;align=center;verticalAlign=middle;whiteSpace=wrap;rounded=0;" vertex="1" parent="1">
          <mxGeometry x="270" y="710" width="60" height="30" as="geometry" />
        </mxCell>
        <mxCell id="RdzUvG4YaiTT2t2f8Zw8-19" value="Password" style="text;html=1;strokeColor=none;fillColor=none;align=center;verticalAlign=middle;whiteSpace=wrap;rounded=0;" vertex="1" parent="1">
          <mxGeometry x="270" y="780" width="60" height="30" as="geometry" />
        </mxCell>
      </root>
    </mxGraphModel>
  </diagram>
</mxfile>
